<svg width="36" height="36" viewBox="0 0 36 36" fill="none">
  <defs>
    <linearGradient id="lnGrad" x1="0" y1="0" x2="36" y2="36" gradientUnits="userSpaceOnUse">
      <stop stop-color="#0e76a8"/>
      <stop offset="1" stop-color="#3399ff"/>
    </linearGradient>
  </defs>
  <circle cx="18" cy="18" r="18" fill="url(#lnGrad)"/>
  <path d="M10 14h4v12h-4V14zm2-4a2 2 0 110-4 2 2 0 010 4zm4 4h4v2h.06a4.4 4.4 0 014.44-4.5c3.14 0 4.5 2.08 4.5 5.08V26h-4v-7c0-1.68-.03-3.84-2.34-3.84-2.34 0-2.7 1.83-2.7 3.72V26h-4V14z" fill="#fff"/>
</svg>